<?xml version="1.0" encoding="utf-8"?>
<!-- Generator: Adobe Illustrator 28.2.0, SVG Export Plug-In . SVG Version: 6.00 Build 0)  -->
<svg version="1.1" id="Layer_1" xmlns="http://www.w3.org/2000/svg" xmlns:xlink="http://www.w3.org/1999/xlink" x="0px" y="0px"
	 viewBox="0 0 364.01 87.39" style="enable-background:new 0 0 364.01 87.39;" xml:space="preserve">
<style type="text/css">
	.st0{fill-rule:evenodd;clip-rule:evenodd;fill:#F2F2F2;}
	.st1{fill-rule:evenodd;clip-rule:evenodd;fill:#078FA5;}
	.st2{fill:#FFFFFF;}
	.st3{font-family:'Tachyon-Light';}
	.st4{font-size:50.4244px;}
</style>
<path class="st0" d="M29.33,70.97c1.85,2.69,4.07,5.19,6.64,7.44c5.3,4.63,11.47,7.61,17.89,8.99c-9.12-0.68-18.11-4.2-25.53-10.69
	c-1.28-1.11-2.47-2.29-3.58-3.51L29.33,70.97z M24.18,14.97c15.9-18.2,43.54-20.06,61.74-4.16c7.42,6.48,12.12,14.91,14.01,23.86
	c-2.23-6.18-6.01-11.9-11.31-16.53C71.98,3.6,46.7,5.3,32.16,21.95c-10.54,12.06-12.54,28.66-6.51,42.42l-5.1,3.42
	C10.02,51.77,10.95,30.1,24.18,14.97z"/>
<polygon class="st1" points="32.77,32.87 62.29,42.7 84.4,34.86 66.55,50.08 60.3,80.56 58.08,55.17 0,83.5 53.65,47.5 "/>
<text transform="matrix(1 0 0 1 112.6977 75.0098)" class="st2 st3 st4">Voyana</text>
</svg>
